<svg version="1.1" id="Layer_1" xmlns="http://www.w3.org/2000/svg" xmlns:xlink="http://www.w3.org/1999/xlink" x="0px" y="0px"
	 width="100%" viewBox="0 0 192 148" enable-background="new 0 0 192 148" xml:space="preserve">
<path fill="#FFFFFF" opacity="1.000000" stroke="none" 
	d="
M123.000000,149.000000 
	C83.195610,149.000000 43.891148,148.971405 4.586962,149.061874 
	C1.855214,149.068161 0.887012,148.826752 0.897283,145.591644 
	C1.046919,98.460159 1.034603,51.327953 0.915531,4.196294 
	C0.908252,1.315095 1.636353,0.926595 4.299239,0.930472 
	C66.086945,1.020428 127.874840,1.018178 189.662567,0.936316 
	C192.246506,0.932892 193.097107,1.194626 193.089188,4.158111 
	C192.962601,51.456280 192.972733,98.754944 193.072968,146.053238 
	C193.078522,148.678101 192.325089,149.065414 189.950790,149.055374 
	C167.800842,148.961853 145.650345,149.000000 123.000000,149.000000 
z"/>
<path fill="#EEEEEE" opacity="1.000000" stroke="none" 
	d="
M146.795349,39.803719 
	C151.041443,44.225174 152.228821,49.216919 152.097244,55.045673 
	C151.781509,69.033875 152.098022,83.035133 151.945084,97.028778 
	C151.875549,103.391304 150.104813,108.583504 143.660492,112.100098 
	C130.054489,119.524750 116.883125,127.748001 103.567482,135.700592 
	C101.425224,136.980026 99.171379,137.076691 96.408249,136.979019 
	C95.428345,136.313980 95.073189,135.517151 95.147171,134.690643 
	C95.835625,127.000435 94.419899,119.282799 95.280022,111.634201 
	C95.719231,107.728455 94.523293,104.062843 94.671677,100.258217 
	C94.897392,94.470680 94.221321,88.664917 95.249084,82.886192 
	C95.778267,79.910812 93.950493,77.494499 92.665932,75.016243 
	C91.990257,73.712708 90.659103,72.777092 90.516449,70.803513 
	C90.661232,70.282486 90.778198,70.012772 90.843323,70.024757 
	C98.262520,71.390350 104.171799,67.976456 109.960678,64.081596 
	C110.763451,63.541470 111.864517,63.495750 112.840752,63.311001 
	C114.477119,63.001328 116.399307,62.558537 117.200813,64.513245 
	C117.981232,66.416550 116.465347,67.700058 115.030624,68.520401 
	C111.966599,70.272346 109.824532,73.121574 106.823402,74.994904 
	C104.605011,76.379646 102.734840,78.587044 104.732658,82.037811 
	C105.228058,83.724937 105.228935,85.042419 104.673790,86.721405 
	C101.344193,89.762054 100.948624,93.380234 101.382172,97.111397 
	C102.281677,104.852615 101.583466,112.767105 104.098801,120.636711 
	C106.271851,122.982391 108.112747,122.306877 109.891136,120.653969 
	C111.446548,119.208305 112.557144,117.266609 114.982239,116.347450 
	C116.897255,116.235001 117.544258,117.463837 118.382378,118.457222 
	C119.388077,119.649223 120.809486,119.843262 121.929367,119.015694 
	C127.042702,115.237061 132.639206,112.285027 138.151306,109.178802 
	C138.702377,108.868248 138.759491,108.042465 139.211853,107.132309 
	C141.896347,104.005165 143.799988,100.889137 144.473572,96.716446 
	C145.791641,94.618027 146.079605,92.585297 145.847733,90.641495 
	C144.967896,83.265831 146.802612,75.741951 144.442474,68.104675 
	C143.483627,65.387718 144.123871,62.398415 141.072906,60.644814 
	C138.992661,58.048317 137.035049,57.837845 134.299057,59.209591 
	C130.903885,60.911839 127.327972,62.309933 123.766281,63.674507 
	C122.186111,64.279915 120.364937,64.415344 119.054344,63.122589 
	C117.550323,61.639038 118.555412,60.053303 119.534637,58.277802 
	C119.830238,57.782722 119.952141,57.588188 120.282433,57.122559 
	C121.107498,56.199654 121.790115,55.615391 122.669815,54.752640 
	C123.116707,54.417778 123.309265,54.302765 123.808594,54.050484 
	C125.563324,53.385643 127.093910,53.031750 128.530273,51.721275 
	C130.503738,50.439690 132.246155,49.420235 134.329926,48.332100 
	C135.060257,48.091881 135.485550,47.996304 136.227753,47.872070 
	C137.877792,47.723934 138.781647,46.919216 139.820206,45.728371 
	C142.576233,44.106091 143.778000,42.501690 140.690765,39.951981 
	C140.240692,38.947044 140.241882,38.245209 140.760437,37.269981 
	C142.178436,37.150208 143.356812,37.306072 144.765228,37.735428 
	C145.543716,38.525604 146.054810,39.079685 146.795349,39.803719 
z"/>
<path fill="#ECECEC" opacity="1.000000" stroke="none" 
	d="
M75.379425,125.994278 
	C72.434593,126.128792 70.104553,125.638580 68.170395,123.311005 
	C68.599113,119.797363 65.737106,119.335480 64.000748,118.062981 
	C60.294060,115.346489 55.737942,114.328613 52.192566,110.919495 
	C43.686737,102.740562 41.776802,92.879456 43.022316,81.853043 
	C43.669746,76.121407 44.328537,70.415939 46.078476,64.838509 
	C47.024509,61.823307 48.378956,59.788979 51.516121,60.459400 
	C54.915588,61.185883 56.784382,57.641003 60.283752,58.156715 
	C61.929878,58.628788 62.949913,59.539303 64.595909,60.073654 
	C71.666222,64.215057 79.130875,66.674126 85.571693,71.269920 
	C91.666412,75.618759 94.626144,81.233238 94.967468,88.460526 
	C95.407028,97.767677 94.584152,107.052505 94.263206,116.343407 
	C94.084099,121.528160 89.404518,125.935631 84.241737,126.305054 
	C81.410057,126.507683 78.608215,125.989853 75.379425,125.994278 
z"/>
<path fill="#E8E8E8" opacity="1.000000" stroke="none" 
	d="
M75.131844,126.348434 
	C75.271095,123.827408 76.552689,124.088890 78.235100,124.538445 
	C83.333687,125.900818 87.947220,125.371475 91.438820,120.784157 
	C92.039642,119.994774 92.967316,119.389511 92.913788,118.323792 
	C92.357941,107.257896 95.314629,96.296181 93.329941,85.123413 
	C91.831123,76.685829 85.664139,73.060165 79.500809,68.951035 
	C74.810501,65.823975 68.894707,65.173401 64.309891,61.152168 
	C63.265873,60.284386 62.613831,59.466103 61.303658,59.045155 
	C59.875378,59.176773 58.072182,58.983364 57.744209,59.588928 
	C56.038277,62.738754 53.596386,62.287994 50.942482,61.478905 
	C49.067539,60.907291 47.783516,62.088020 47.476570,63.481747 
	C45.330177,73.227715 42.650776,83.142563 44.225597,93.060844 
	C45.705853,102.383499 50.174526,110.422661 59.959972,114.246063 
	C63.296551,115.549751 66.287621,117.837769 69.261505,119.925392 
	C70.647545,120.898384 72.136147,122.565102 68.357933,122.992104 
	C61.279716,119.292816 54.472469,115.719757 47.853470,111.826645 
	C44.864429,110.068581 42.394939,107.569267 41.960873,103.392097 
	C42.902683,100.773628 42.711048,98.604652 41.259560,96.255966 
	C41.019974,91.312302 41.013783,86.619621 41.017349,81.460526 
	C42.798927,78.618980 41.741997,75.879845 41.999748,73.312653 
	C42.643829,66.897644 43.043339,60.485325 48.108711,55.500771 
	C50.107819,53.533562 52.018330,52.422153 54.648285,53.620029 
	C56.914646,54.652287 59.126251,54.467876 61.795006,53.834175 
	C62.706444,53.769684 63.224010,53.782993 64.115295,53.886765 
	C65.216125,54.097691 65.890984,54.384064 66.823303,54.945290 
	C68.287361,56.186634 69.641045,56.876926 71.506577,57.296417 
	C72.013969,57.538666 72.205597,57.660435 72.643250,58.019325 
	C76.619064,62.631710 81.888657,64.692749 86.715424,67.407936 
	C87.989166,68.124458 89.517448,68.367264 90.813286,69.710449 
	C90.861786,72.618469 93.945137,72.988991 94.550117,75.124733 
	C95.544411,78.634865 97.032516,81.607391 96.376930,85.900475 
	C95.377609,92.444527 95.141678,99.414902 96.805603,106.143494 
	C97.278915,108.057449 97.011192,110.050011 96.541283,112.041397 
	C95.827354,115.066864 95.501045,118.043861 96.931389,121.168724 
	C97.703728,122.856056 98.301842,125.047165 96.650871,127.151817 
	C94.497215,129.897324 97.684814,133.272690 96.033401,136.604309 
	C87.871826,135.972443 81.555107,131.362518 75.131844,126.348434 
z"/>
<path fill="#F4F4F4" opacity="1.000000" stroke="none" 
	d="
M140.850342,36.688965 
	C141.000595,37.745277 141.001114,38.496212 140.708740,39.750000 
	C139.535446,40.207382 138.807388,39.761154 137.792038,39.206924 
	C137.347351,38.947216 137.173386,38.839081 136.748886,38.558395 
	C135.708496,37.777489 134.875412,37.254955 133.575500,37.000072 
	C132.448578,36.736233 131.713211,36.350288 130.797546,35.627495 
	C129.943634,34.812115 129.311340,34.234020 128.196518,33.744598 
	C119.109146,29.543394 111.496651,23.464613 102.844795,19.173635 
	C98.567566,17.052301 94.404381,17.573883 90.452950,19.584909 
	C82.010521,23.881563 73.563881,28.184929 65.116180,33.210602 
	C63.837841,33.946411 62.835209,34.469360 61.710350,35.419403 
	C60.001717,36.663937 58.357292,37.374084 56.581673,38.523331 
	C56.038548,38.700012 55.811424,38.742645 55.235092,38.780209 
	C53.927765,38.634613 53.100056,38.219624 52.183075,37.288307 
	C54.833645,31.871746 60.776413,31.487476 65.124626,28.679449 
	C72.377831,23.995415 79.601204,19.214434 87.035881,14.817719 
	C91.683472,12.069231 96.704239,11.122311 102.226700,13.518864 
	C110.260689,17.005325 117.078674,22.485149 124.815857,26.441067 
	C130.368225,29.279919 136.013992,32.102341 140.850342,36.688965 
z"/>
<path fill="#E6E6E6" opacity="1.000000" stroke="none" 
	d="
M63.193871,54.671814 
	C59.678307,55.305809 56.446686,57.007408 53.077999,54.336586 
	C51.474953,53.065636 46.005054,58.361713 45.155155,62.233997 
	C44.100891,67.037399 42.620609,71.795822 42.957691,76.838585 
	C43.049397,78.210457 43.556622,79.894615 41.417019,80.905190 
	C41.225929,69.523720 40.489063,58.043289 41.687317,46.278946 
	C47.357986,42.730850 50.628384,47.910873 54.787125,49.350731 
	C56.534225,49.955624 58.019661,51.479347 60.398930,51.828110 
	C61.010719,51.983807 61.252426,52.061375 61.835815,52.310959 
	C62.373482,52.646851 62.569466,52.810734 62.986565,53.287441 
	C63.268330,53.847923 63.328987,54.095589 63.193871,54.671814 
z"/>
<path fill="#F1F1F1" opacity="1.000000" stroke="none" 
	d="
M62.197189,52.707939 
	C56.428001,54.038895 53.031311,49.379944 48.612247,47.510555 
	C46.623409,46.669231 44.849586,46.148556 42.397972,45.984283 
	C42.426498,41.196106 46.371628,37.342339 51.580170,36.995049 
	C52.794659,37.244923 53.600689,37.496510 54.702278,37.873913 
	C55.574078,38.772270 55.328911,39.656311 55.354160,40.826263 
	C55.548615,42.884228 56.165867,44.461849 57.294987,46.183327 
	C57.973827,47.151424 58.517193,47.809769 59.504124,48.499538 
	C60.937202,49.731777 62.594448,50.423889 62.197189,52.707939 
z"/>
<path fill="#E6E6E6" opacity="1.000000" stroke="none" 
	d="
M41.016724,96.422394 
	C44.258514,97.650520 45.117054,99.867935 42.313774,102.950584 
	C40.208733,101.177605 41.312519,98.901802 41.016724,96.422394 
z"/>
<path fill="#F4F4F4" opacity="1.000000" stroke="none" 
	d="
M146.956665,39.680500 
	C146.090942,39.928799 145.299988,39.693104 145.037872,38.328568 
	C145.906494,38.073811 146.698105,38.308842 146.956665,39.680500 
z"/>
<path fill="#FDFBFB" opacity="1.000000" stroke="none" 
	d="
M62.002136,52.997505 
	C62.112274,51.054119 60.000526,50.881050 59.145035,49.296707 
	C58.458862,48.474995 57.943169,47.923203 57.195366,47.203331 
	C54.667767,45.985168 54.964661,43.516758 54.034138,41.353676 
	C54.801842,40.322227 55.229839,39.408886 55.799522,38.229729 
	C57.112095,36.532215 58.738796,35.888977 60.690674,35.134907 
	C61.759888,34.317020 62.843037,34.163479 63.785610,33.215206 
	C69.048347,28.987059 74.874023,26.299490 80.506775,23.275082 
	C83.774704,21.520430 87.024666,19.653851 90.314217,18.025551 
	C95.510559,15.453403 101.006508,16.043158 106.088303,19.152071 
	C113.506264,23.690180 120.950165,28.185890 128.690887,32.851158 
	C129.525040,33.542915 130.060272,34.074146 130.803864,34.796867 
	C131.788696,35.316147 132.574936,35.634048 133.680099,35.977077 
	C134.674118,36.800472 135.591766,37.222969 136.760254,37.814308 
	C137.000610,37.999390 137.000000,38.000000 137.000305,37.999619 
	C138.625610,39.823418 138.309479,42.049633 138.251953,44.611641 
	C138.163101,45.265518 138.110245,45.522587 137.923279,46.146042 
	C137.359268,47.533577 136.365265,47.914680 135.272186,48.747017 
	C133.232880,49.982300 131.465164,50.962074 129.354919,51.974541 
	C127.805237,53.405376 125.794411,53.359379 124.232651,54.769814 
	C124.000343,55.001801 123.504929,55.005486 123.257217,55.005299 
	C122.477036,55.540283 121.924042,56.054703 121.199005,56.797771 
	C120.998871,56.998013 121.000870,57.001282 121.002518,57.004902 
	C118.850006,58.787994 116.638214,60.481121 113.747162,61.757908 
	C112.346695,62.185501 111.271004,62.500679 110.125587,63.473743 
	C108.118004,64.395103 106.437386,65.221764 104.307190,65.862480 
	C101.850960,66.340553 100.272743,65.122375 97.799080,63.584576 
	C99.699638,65.449768 100.258423,66.857674 99.457001,68.840935 
	C98.731491,69.605537 98.087471,69.798767 97.053551,69.778465 
	C95.546906,69.461159 94.684990,68.219345 92.974892,68.646347 
	C91.778091,68.755371 90.990410,68.485565 90.015167,67.806702 
	C89.151978,67.078178 88.593826,66.457466 87.431831,66.214142 
	C85.327316,65.843941 83.941383,64.710602 82.149002,63.653011 
	C80.408974,61.739269 78.734360,60.357594 76.038345,60.016632 
	C74.560669,59.635876 73.461349,59.238647 72.256714,58.253189 
	C71.987099,58.022602 71.998253,58.001202 71.987854,58.007587 
	C70.935776,56.450108 69.253586,56.302742 67.310570,56.026466 
	C66.507286,55.742565 66.015030,55.476528 65.263962,55.102634 
	C65.005150,54.994778 64.651192,54.671009 64.506737,54.480980 
	C64.362282,54.290955 64.089951,53.903469 63.935936,53.725578 
	C63.781925,53.547691 63.336048,53.389034 63.097649,53.375988 
	C62.859245,53.362942 62.385815,53.287663 62.196461,53.140709 
	C62.007107,52.993759 62.000683,52.999275 62.002136,52.997505 
z"/>
<path fill="#F4F4F4" opacity="1.000000" stroke="none" 
	d="
M139.732941,106.961349 
	C139.888779,109.921776 139.039825,111.390556 135.835098,112.224197 
	C132.285751,113.147491 128.892776,115.396446 125.933540,117.710007 
	C120.118721,122.256088 119.648148,122.403877 114.954475,116.941696 
	C114.168045,116.330086 114.005005,115.703445 113.787460,114.762604 
	C113.188293,112.592888 111.876808,112.535591 110.036385,113.080582 
	C105.426170,114.394379 105.790421,118.564026 104.112885,121.808617 
	C101.547783,120.269226 101.383614,117.449524 101.171539,115.138695 
	C100.478249,107.584648 100.362915,99.978172 99.994774,92.393341 
	C99.868019,89.781715 100.731773,87.857941 103.776131,86.990860 
	C105.926193,86.123871 107.845779,86.115005 110.081596,85.855492 
	C111.181892,85.882561 111.890739,86.038040 112.861382,86.549408 
	C114.267319,88.721306 113.169601,90.304855 112.162651,91.806732 
	C110.990578,93.554909 110.618782,95.320541 110.846275,97.447708 
	C111.297920,101.670738 112.580116,105.417130 116.796883,107.020294 
	C121.180809,108.687019 128.444702,106.123444 131.104111,102.423729 
	C131.949966,101.247009 132.368622,99.622437 134.543060,99.586929 
	C135.739761,100.381691 135.781265,101.365005 135.586319,102.300529 
	C134.911285,105.540230 136.571014,106.662064 139.732941,106.961349 
z"/>
<path fill="#F1F1F1" opacity="1.000000" stroke="none" 
	d="
M81.764992,62.768059 
	C84.258415,62.324036 85.190933,65.149849 87.624382,64.996048 
	C88.523834,65.541298 89.058838,66.073547 89.801956,66.797806 
	C90.786896,67.317909 91.573784,67.635811 92.679855,67.978409 
	C93.874115,68.027237 94.760803,67.997406 95.762047,68.771530 
	C96.750465,68.998085 97.500000,68.998909 98.624313,68.998764 
	C99.972839,67.123795 101.828079,66.381943 103.775383,65.232697 
	C105.745461,64.289696 107.254189,62.969204 109.638992,63.004471 
	C110.671188,62.187645 111.649765,61.860168 112.770592,61.196022 
	C115.822472,60.391773 117.168205,57.095825 120.640335,57.010643 
	C120.999870,57.174698 120.939270,57.365597 120.999748,57.503326 
	C121.877167,59.501194 117.460175,60.695812 119.944305,62.558014 
	C121.852638,63.988567 124.228401,62.717236 125.949821,61.455013 
	C128.886795,59.301476 132.841980,59.570446 135.669891,56.815403 
	C136.633484,55.876637 140.237885,55.911926 140.985291,59.507931 
	C138.776871,63.148453 135.658020,65.845299 134.444794,70.182213 
	C132.895721,72.136871 131.173126,72.582603 129.038589,72.680695 
	C122.285530,72.991035 120.115875,74.942192 118.894279,81.599968 
	C118.309486,84.787102 116.865623,85.527214 113.904434,83.560303 
	C113.286659,82.522598 113.298729,81.710411 113.325218,80.873192 
	C113.374039,79.330582 114.396172,77.301125 112.102951,76.651657 
	C110.160667,76.101578 108.648216,77.356071 107.376289,78.760178 
	C106.389694,79.849281 106.093254,81.489410 104.300751,82.094086 
	C101.639801,79.104782 102.449455,74.934479 106.251312,73.555878 
	C110.141449,72.145279 111.514832,67.676117 115.615829,66.750816 
	C116.282516,66.600388 116.929565,65.552383 116.421066,64.686829 
	C115.950638,63.886070 114.954742,63.880379 114.184479,64.152840 
	C111.745583,65.015533 109.296745,65.498444 107.008003,67.173225 
	C102.548141,70.436707 97.664589,73.643539 91.363190,70.041473 
	C83.777046,67.769035 77.073242,64.669014 72.026932,58.371601 
	C73.109634,58.256111 74.232170,58.489624 75.675720,58.862671 
	C77.749313,60.324017 79.950401,60.943726 81.764992,62.768059 
z"/>
<path fill="#F6F6F6" opacity="1.000000" stroke="none" 
	d="
M144.377777,66.545959 
	C146.315109,68.203056 147.141937,70.113289 147.070328,72.671249 
	C146.867233,79.927490 147.003891,87.193115 146.993652,94.455025 
	C146.992218,95.474068 146.891113,96.478714 145.316376,96.935272 
	C144.264481,96.804558 143.794464,96.340172 143.216461,95.500595 
	C142.330475,93.768791 141.117859,92.750961 139.775146,91.371361 
	C139.433517,90.875931 139.320999,90.658157 139.093674,90.085144 
	C139.740799,84.210693 135.829590,79.567749 136.177673,73.787827 
	C138.650375,70.917641 141.807404,69.328873 144.377777,66.545959 
z"/>
<path fill="#202020" opacity="1.000000" stroke="none" 
	d="
M143.619354,94.968781 
	C144.122635,95.760315 144.354538,96.201363 144.765106,96.823029 
	C145.014389,100.953209 143.566605,104.189438 140.211151,106.903992 
	C134.404678,108.386749 133.120102,106.776268 134.897186,100.378540 
	C135.484024,94.930542 137.988602,93.333824 143.619354,94.968781 
z"/>
<path fill="#262626" opacity="1.000000" stroke="none" 
	d="
M144.712067,66.052841 
	C143.067551,69.306107 141.368774,72.146301 137.339752,72.879395 
	C134.685257,74.059540 133.858566,72.813858 133.752960,70.385284 
	C134.584427,65.743332 136.052963,62.046658 140.715942,60.086662 
	C144.858688,60.136993 145.264008,62.599712 144.712067,66.052841 
z"/>
<path fill="#141414" opacity="1.000000" stroke="none" 
	d="
M103.966248,82.405212 
	C105.145432,80.689583 105.252251,78.807556 106.766197,77.581985 
	C108.849136,75.895805 110.913849,73.591118 113.610634,75.209633 
	C116.471893,76.926849 115.080154,79.782356 114.147552,82.640793 
	C114.037697,83.482735 113.864174,83.883774 113.412155,84.512634 
	C112.475578,85.634148 111.479996,86.101540 110.241516,86.790878 
	C108.252190,86.992188 106.601212,88.890526 104.478271,87.082504 
	C104.095825,85.566795 104.028275,84.192810 103.966248,82.405212 
z"/>
<path fill="#1B1B1B" opacity="1.000000" stroke="none" 
	d="
M104.096397,122.220490 
	C104.054840,117.790726 103.746117,113.300262 109.613762,111.948441 
	C111.132217,113.410477 112.980072,112.810768 114.609154,113.775452 
	C114.786774,114.720711 114.710327,115.432579 114.597389,116.506241 
	C113.084381,118.746498 111.828522,120.874847 110.066879,122.430420 
	C108.432846,123.873314 106.260910,124.485352 104.096397,122.220490 
z"/>
<path fill="#F4F4F4" opacity="1.000000" stroke="none" 
	d="
M141.001221,39.998947 
	C142.849030,40.118015 144.475800,41.094170 144.568710,42.807308 
	C144.692535,45.090710 142.294586,45.220097 140.133728,45.679802 
	C139.172989,43.660130 139.653809,42.059116 140.745209,40.264111 
	C140.997559,40.001694 141.000000,40.000000 141.001221,39.998947 
z"/>
<path fill="#F9F9F9" opacity="1.000000" stroke="none" 
	d="
M124.358810,54.965149 
	C124.301819,52.370243 126.798927,52.958778 128.652374,52.041260 
	C128.695389,54.619900 126.209137,54.043163 124.358810,54.965149 
z"/>
<path fill="#F4F4F4" opacity="1.000000" stroke="none" 
	d="
M136.778519,47.308876 
	C136.998779,46.999302 137.000885,46.501099 137.001358,46.251999 
	C137.686157,45.422325 138.458481,45.272579 139.656738,45.764900 
	C139.999390,45.999237 140.000015,46.000084 140.002136,46.002254 
	C139.935745,47.541187 139.270721,48.604198 137.339111,48.965076 
	C136.621262,48.612194 136.474426,48.152138 136.778519,47.308876 
z"/>
<path fill="#F9F9F9" opacity="1.000000" stroke="none" 
	d="
M136.677917,47.040916 
	C136.998856,47.443611 136.998932,47.887920 136.998901,48.665428 
	C136.554733,49.000107 136.110703,49.001587 135.333633,49.002792 
	C135.072617,48.093952 135.306549,47.299786 136.677917,47.040916 
z"/>
<path fill="#F9F9F9" opacity="1.000000" stroke="none" 
	d="
M121.319901,56.957428 
	C121.074036,56.088226 121.311523,55.294266 122.687469,55.043991 
	C122.930878,55.912647 122.691750,56.705276 121.319901,56.957428 
z"/>
<path fill="#F9F9F9" opacity="1.000000" stroke="none" 
	d="
M62.862465,74.161880 
	C62.999359,74.001831 63.498131,73.993683 63.747490,73.988022 
	C71.490685,74.749352 77.604027,77.796638 81.482445,84.550186 
	C81.979790,85.416229 82.742943,86.317635 82.640640,87.261780 
	C81.950104,93.635078 83.411522,100.189598 80.820557,106.736824 
	C79.210594,108.183716 78.002182,109.518921 76.114159,110.595535 
	C68.899765,107.674545 61.637810,105.611313 57.422909,98.326233 
	C54.292156,92.915001 54.220795,83.824852 58.696991,79.260460 
	C58.357922,78.230476 57.724949,77.470764 57.050522,76.407990 
	C57.317425,75.263954 58.040794,74.776596 58.856880,73.966370 
	C59.474304,73.296822 59.853123,72.826157 60.459747,72.159653 
	C61.648201,72.032478 62.575989,72.163246 62.942730,73.652695 
	C62.998146,74.000664 62.702885,74.297684 62.549911,74.440353 
	C62.396942,74.583015 62.138145,74.911407 62.262108,74.741333 
	C62.386066,74.571266 62.725567,74.321930 62.862465,74.161880 
z"/>
<path fill="#F4F4F4" opacity="1.000000" stroke="none" 
	d="
M80.237282,107.278870 
	C82.182571,100.958313 80.878204,94.552773 81.485313,88.340431 
	C81.865570,84.449471 78.082123,80.164192 74.174416,78.481384 
	C70.920364,77.080063 67.732224,75.095184 64.036560,74.286240 
	C63.474773,69.446159 66.333313,69.489532 69.319824,70.296875 
	C80.319855,73.270508 88.025131,83.426193 87.991196,94.777275 
	C87.975029,100.185448 87.848892,105.593285 87.675972,111.452423 
	C85.043396,110.722328 83.203476,108.407318 80.237282,107.278870 
z"/>
<path fill="#F4F4F4" opacity="1.000000" stroke="none" 
	d="
M58.587372,78.993637 
	C54.229130,87.950676 56.037552,97.682564 63.730370,104.112404 
	C64.599640,104.838966 65.763596,105.722206 66.764931,105.691299 
	C70.625938,105.572136 73.131676,107.954597 76.214859,110.144684 
	C76.868446,111.000290 76.807541,111.752220 76.144302,112.737953 
	C74.457947,113.434517 73.369263,113.783684 71.591721,113.281601 
	C67.369629,112.089043 63.476318,110.333221 59.680115,108.296356 
	C53.288383,104.866867 47.968964,88.911018 50.424969,82.200691 
	C52.012402,77.863495 55.127686,78.891373 58.587372,78.993637 
z"/>
<path fill="#1B1B1B" opacity="1.000000" stroke="none" 
	d="
M75.960037,113.339363 
	C75.993843,112.289085 76.137802,111.584511 76.440491,110.552414 
	C77.652679,109.346085 76.473328,106.473343 79.655899,107.102234 
	C83.217926,107.060844 85.661354,108.390282 87.360931,111.610580 
	C88.191589,115.213745 87.879990,118.248718 84.009636,119.154251 
	C79.567467,120.193558 77.515915,117.260620 75.960037,113.339363 
z"/>
<path fill="#202020" opacity="1.000000" stroke="none" 
	d="
M59.869694,73.012138 
	C59.063114,74.152786 58.319992,74.940643 57.292969,75.916718 
	C53.052856,76.653000 51.092716,74.220642 49.916641,71.040726 
	C49.053761,68.707642 49.792366,66.735619 51.840889,65.026947 
	C54.357521,62.927818 56.145245,63.268524 57.937813,66.255783 
	C59.060150,68.498589 60.136444,70.389870 59.869694,73.012138 
z"/>
<path fill="#141414" opacity="1.000000" stroke="none" 
	d="
M59.944321,73.206863 
	C59.237164,71.347496 58.668083,69.330055 58.115265,66.938141 
	C61.139225,66.977913 60.090004,69.497925 60.619476,71.596573 
	C60.483624,72.323616 60.283009,72.686211 59.944321,73.206863 
z"/>
<path fill="#E6E6E6" opacity="1.000000" stroke="none" 
	d="
M61.139755,59.290363 
	C63.003319,57.219666 63.357918,59.034382 63.970306,60.676056 
	C62.845299,61.001884 61.922337,60.560387 61.139755,59.290363 
z"/>
<path fill="#F1F1F1" opacity="1.000000" stroke="none" 
	d="
M67.167557,56.325573 
	C69.084381,54.713589 71.089622,53.737183 71.975159,57.632607 
	C70.312477,57.955173 68.517067,58.337856 67.167557,56.325573 
z"/>
<path fill="#F1F1F1" opacity="1.000000" stroke="none" 
	d="
M64.691849,53.782909 
	C65.004959,53.997864 65.005234,54.496422 65.005188,54.745598 
	C64.559128,54.996593 64.113106,54.998413 63.332588,55.000305 
	C62.998093,55.000381 62.995956,54.501709 62.994545,54.252373 
	C63.384323,53.632904 63.846256,53.488083 64.691849,53.782909 
z"/>
<path fill="#F9F9F9" opacity="1.000000" stroke="none" 
	d="
M140.042130,45.619965 
	C139.249985,46.000000 138.500565,46.000763 137.376495,46.002213 
	C137.001236,43.631226 137.000626,41.259552 137.000305,38.443558 
	C138.470352,37.911152 139.368362,38.955894 140.703003,39.860435 
	C141.185349,41.833740 140.753403,43.557827 140.042130,45.619965 
z"/>
<path fill="#F9F9F9" opacity="1.000000" stroke="none" 
	d="
M136.859680,37.710121 
	C135.871338,37.926701 134.577713,38.217613 134.052368,36.346527 
	C135.154465,35.997944 136.078171,36.437996 136.859680,37.710121 
z"/>
<path fill="#F9F9F9" opacity="1.000000" stroke="none" 
	d="
M55.750011,38.000816 
	C55.926411,39.130447 56.216648,40.424900 54.343735,40.947105 
	C54.248566,40.196400 54.498035,39.393013 54.872665,38.294682 
	C55.164982,37.999912 55.332134,38.000088 55.750011,38.000816 
z"/>
<path fill="#F9F9F9" opacity="1.000000" stroke="none" 
	d="
M63.679688,33.027199 
	C63.934414,34.468719 63.084778,35.032890 61.355186,34.995739 
	C61.455776,33.950703 62.181526,33.228745 63.679688,33.027199 
z"/>
<path fill="#F9F9F9" opacity="1.000000" stroke="none" 
	d="
M130.960403,34.677612 
	C130.094116,34.927200 129.300308,34.693806 129.040649,33.323254 
	C129.907318,33.073277 130.700348,33.307629 130.960403,34.677612 
z"/>
<path fill="#F4F4F4" opacity="1.000000" stroke="none" 
	d="
M65.004150,53.748436 
	C64.557922,53.998760 64.110893,53.999653 63.328495,54.001793 
	C62.670105,53.901257 62.410137,53.712593 62.110168,53.215401 
	C62.007107,52.993759 62.497162,52.992882 62.742188,52.994164 
	C63.380085,52.629234 63.841362,52.491119 64.685585,52.790321 
	C65.000305,53.000153 65.003342,53.499004 65.004150,53.748436 
z"/>
<path fill="#F9F9F9" opacity="1.000000" stroke="none" 
	d="
M57.038273,47.322823 
	C57.906380,47.072979 58.700924,47.307293 58.957748,48.681305 
	C58.091175,48.927830 57.296650,48.693684 57.038273,47.322823 
z"/>
<path fill="#B3070E" opacity="1.000000" stroke="none" 
	d="
M102.821152,36.724297 
	C103.214951,36.945946 103.613380,36.962196 103.787132,37.059982 
	C104.862335,37.729897 105.167549,38.730881 105.955299,39.723354 
	C106.214050,39.875809 106.109604,39.903477 106.132904,39.854736 
	C107.060890,44.593204 103.999374,49.329632 99.447868,49.879105 
	C97.175529,50.153427 94.832359,50.263226 92.139702,49.404778 
	C91.693504,49.341934 91.856903,49.229755 91.803391,49.313168 
	C88.867477,46.813076 86.975060,43.791615 88.597038,39.844017 
	C89.882538,36.715324 94.371712,35.117817 99.025444,35.974674 
	C100.158195,36.183243 101.322151,36.159908 102.821152,36.724297 
z"/>
<path fill="#891E22" opacity="1.000000" stroke="none" 
	d="
M103.124390,36.656349 
	C101.556549,36.960892 99.898178,36.985607 98.239754,36.989170 
	C88.932945,37.009151 86.969147,40.484371 91.702011,49.023689 
	C87.289757,47.057606 85.782829,43.785831 87.343216,39.828995 
	C88.862122,35.977352 94.687416,33.223999 99.145905,34.886024 
	C100.383957,35.347542 102.168686,34.875473 103.124390,36.656349 
z"/>
<path fill="#891E22" opacity="1.000000" stroke="none" 
	d="
M91.948593,49.634956 
	C92.996880,49.220978 94.298859,49.014648 95.603859,48.993404 
	C102.300369,48.884403 104.146461,47.413952 106.095200,40.190826 
	C108.729774,44.083820 107.030190,48.061684 101.593796,50.125534 
	C98.485100,51.305717 95.295937,51.732815 91.948593,49.634956 
z"/>
<path fill="#F9F9F9" opacity="1.000000" stroke="none" 
	d="
M103.616714,64.996986 
	C103.734627,67.643791 101.126823,67.533394 99.312775,68.862312 
	C99.634407,65.485603 97.553558,64.447998 93.418015,64.992691 
	C97.801697,61.070030 100.347137,64.822456 103.616714,64.996986 
z"/>
<path fill="#F9F9F9" opacity="1.000000" stroke="none" 
	d="
M81.960922,62.644199 
	C79.606445,62.696354 77.722443,61.535236 76.145012,59.305382 
	C78.513206,59.121685 80.863945,59.539898 81.960922,62.644199 
z"/>
<path fill="#F9F9F9" opacity="1.000000" stroke="none" 
	d="
M95.956413,68.672661 
	C95.137413,68.840836 94.273895,68.684425 93.204704,68.265556 
	C94.133995,66.733215 95.133583,66.606476 95.956413,68.672661 
z"/>
<path fill="#891E22" opacity="1.000000" stroke="none" 
	d="
M106.182297,39.541168 
	C105.010010,39.685188 104.335075,38.937778 103.995651,37.479248 
	C105.368317,37.116543 105.863731,38.050064 106.182297,39.541168 
z"/>
<path fill="#F9F9F9" opacity="1.000000" stroke="none" 
	d="
M112.649277,61.006516 
	C112.545898,62.050774 111.819382,62.772987 110.321114,62.974060 
	C110.065453,61.529270 110.917130,60.966316 112.649277,61.006516 
z"/>
<path fill="#F9F9F9" opacity="1.000000" stroke="none" 
	d="
M89.958664,66.678802 
	C89.091240,66.928879 88.298393,66.693558 88.037117,65.324036 
	C88.904762,65.072250 89.699341,65.305519 89.958664,66.678802 
z"/>
<path fill="#F1F1F1" opacity="1.000000" stroke="none" 
	d="
M64.854828,52.773262 
	C64.553062,52.999611 64.105812,52.999073 63.322887,52.996986 
	C63.417561,52.294701 63.944599,51.964733 64.854828,52.773262 
z"/>
<path fill="#FDFDFD" opacity="1.000000" stroke="none" 
	d="
M112.794159,84.392502 
	C113.226830,83.779205 113.434814,83.505653 113.884750,83.139114 
	C115.687462,83.616798 117.660835,85.328819 117.782173,81.786545 
	C118.030884,74.525604 122.144249,70.613831 129.425217,71.423706 
	C131.295593,71.631752 132.010788,70.522903 133.622345,70.056091 
	C134.690613,70.986496 135.051697,72.315239 136.728729,72.823418 
	C136.812515,75.685379 137.228683,78.174530 138.910492,80.464272 
	C141.070312,83.404793 139.594589,86.880966 140.002350,90.549988 
	C142.012070,91.441223 143.132751,92.824936 143.883789,94.966110 
	C139.755890,94.087662 137.460754,96.560425 135.162811,99.762711 
	C133.069260,100.005943 133.156387,101.673752 132.527695,102.746185 
	C130.055588,106.963242 119.936920,110.697800 115.655670,108.623260 
	C111.214279,106.471138 106.755280,95.694580 110.799408,91.590424 
	C111.793610,90.581459 112.229500,89.022346 112.956230,87.356361 
	C112.416267,86.322433 112.279381,85.567024 112.794159,84.392502 
z"/>
<path fill="#262626" opacity="1.000000" stroke="none" 
	d="
M114.915024,113.652313 
	C113.435471,112.885620 110.762779,116.251717 110.009201,112.330109 
	C112.302345,109.960052 113.816444,110.933571 114.915024,113.652313 
z"/>
<path fill="#F1F1F1" opacity="1.000000" stroke="none" 
	d="
M112.700462,84.084595 
	C113.011887,84.788788 113.004913,85.524811 112.994171,86.628708 
	C112.239662,86.997643 111.488922,86.998718 110.362572,86.997589 
	C110.785332,86.035736 111.583702,85.076080 112.700462,84.084595 
z"/>
<path fill="#EEEEEE" opacity="1.000000" stroke="none" 
	d="
M107.549210,105.467224 
	C107.582405,105.522667 107.516014,105.411781 107.549210,105.467224 
z"/>
<path fill="#FDFDFD" opacity="1.000000" stroke="none" 
	d="
M130.447357,66.536453 
	C130.412109,66.478142 130.482590,66.594765 130.447357,66.536453 
z"/>
<path fill="#F4F4F4" opacity="1.000000" stroke="none" 
	d="
M61.796387,75.124153 
	C61.883469,75.439102 61.756229,75.870079 61.628986,76.301056 
	C60.933464,75.977501 61.301361,75.606911 61.796387,75.124153 
z"/>
<path fill="#F4F4F4" opacity="1.000000" stroke="none" 
	d="
M63.533489,77.550446 
	C63.476540,77.584908 63.590439,77.515991 63.533489,77.550446 
z"/>
<path fill="#F4F4F4" opacity="1.000000" stroke="none" 
	d="
M61.996052,74.994797 
	C62.095642,74.668289 62.284420,74.408966 62.778244,74.106140 
	C62.998146,74.000664 63.000000,74.000000 62.999680,74.000916 
	C62.902645,74.325813 62.718521,74.588509 62.228848,74.899033 
	C62.010712,75.008125 62.000088,75.000000 61.996052,74.994797 
z"/>
<path fill="#ECECEC" opacity="1.000000" stroke="none" 
	d="
M53.471085,80.453323 
	C53.522324,80.423492 53.419842,80.483162 53.471085,80.453323 
z"/>
<path fill="#F6F6F6" opacity="1.000000" stroke="none" 
	d="
M140.003098,91.003998 
	C139.907349,91.040726 139.808487,91.073524 139.851013,91.050201 
	C139.992401,90.994087 140.000000,91.000053 140.003098,91.003998 
z"/>
</svg>